<svg xmlns="http://www.w3.org/2000/svg" xmlns:xlink="http://www.w3.org/1999/xlink" width="500" zoomAndPan="magnify" viewBox="0 0 375 374.999991" height="500" preserveAspectRatio="xMidYMid meet" version="1.0"><defs><clipPath id="60877dc11d"><path d="M 0 23.75 L 375 23.75 L 375 351.5 L 0 351.5 Z M 0 23.75 " clip-rule="nonzero"/></clipPath><clipPath id="1d3355d4d1"><path d="M 150.125 126 L 225.125 126 L 225.125 316 L 150.125 316 Z M 150.125 126 " clip-rule="nonzero"/></clipPath></defs><path fill="#f9a800" d="M 187.5 33.757812 L 364.996094 341.492188 L 10.003906 341.492188 Z M 187.5 33.757812 " fill-opacity="1" fill-rule="nonzero"/><g clip-path="url(#60877dc11d)"><path fill="#000000" d="M 184.078125 24.355469 C 182.976562 24.757812 181.972656 25.335938 181.070312 26.09375 C 180.171875 26.847656 179.425781 27.734375 178.839844 28.753906 L 1.34375 336.488281 C 1.125 336.867188 0.933594 337.261719 0.765625 337.664062 C 0.597656 338.066406 0.457031 338.480469 0.34375 338.902344 C 0.234375 339.324219 0.148438 339.753906 0.0898438 340.1875 C 0.0351562 340.621094 0.00390625 341.054688 0.00390625 341.492188 C 0.00390625 341.929688 0.0351562 342.367188 0.0898438 342.800781 C 0.148438 343.234375 0.234375 343.660156 0.347656 344.082031 C 0.460938 344.503906 0.601562 344.917969 0.765625 345.324219 C 0.933594 345.726562 1.128906 346.117188 1.34375 346.496094 C 1.5625 346.875 1.804688 347.238281 2.070312 347.585938 C 2.339844 347.929688 2.625 348.257812 2.933594 348.570312 C 3.242188 348.878906 3.570312 349.164062 3.917969 349.429688 C 4.265625 349.699219 4.625 349.941406 5.003906 350.160156 C 5.382812 350.378906 5.773438 350.570312 6.179688 350.738281 C 6.582031 350.90625 6.996094 351.046875 7.417969 351.160156 C 7.839844 351.273438 8.265625 351.355469 8.699219 351.414062 C 9.132812 351.472656 9.566406 351.5 10.003906 351.5 L 364.996094 351.5 C 365.433594 351.5 365.867188 351.472656 366.300781 351.414062 C 366.734375 351.355469 367.160156 351.273438 367.582031 351.160156 C 368.003906 351.046875 368.417969 350.90625 368.820312 350.738281 C 369.226562 350.570312 369.617188 350.378906 369.996094 350.160156 C 370.375 349.941406 370.734375 349.699219 371.082031 349.429688 C 371.429688 349.164062 371.757812 348.878906 372.066406 348.570312 C 372.375 348.257812 372.660156 347.929688 372.929688 347.585938 C 373.195312 347.238281 373.4375 346.875 373.65625 346.496094 C 373.871094 346.117188 374.066406 345.726562 374.234375 345.324219 C 374.398438 344.917969 374.539062 344.503906 374.652344 344.082031 C 374.765625 343.660156 374.851562 343.234375 374.910156 342.800781 C 374.964844 342.367188 374.996094 341.929688 374.996094 341.492188 C 374.996094 341.054688 374.964844 340.621094 374.910156 340.1875 C 374.851562 339.753906 374.765625 339.324219 374.65625 338.902344 C 374.542969 338.480469 374.402344 338.066406 374.234375 337.664062 C 374.066406 337.261719 373.875 336.867188 373.65625 336.488281 L 196.160156 28.753906 C 195.867188 28.25 195.535156 27.773438 195.160156 27.324219 C 194.785156 26.878906 194.375 26.46875 193.929688 26.09375 C 193.480469 25.71875 193.003906 25.382812 192.5 25.09375 C 191.996094 24.800781 191.46875 24.554688 190.921875 24.355469 C 190.371094 24.15625 189.8125 24.003906 189.238281 23.902344 C 188.660156 23.800781 188.082031 23.75 187.5 23.75 C 186.917969 23.75 186.335938 23.800781 185.761719 23.902344 C 185.1875 24.003906 184.628906 24.15625 184.078125 24.355469 Z M 187.5 53.773438 L 347.679688 331.484375 L 27.320312 331.484375 Z M 187.5 53.773438 " fill-opacity="1" fill-rule="nonzero"/></g><g clip-path="url(#1d3355d4d1)"><path fill="#000000" d="M 174.109375 126.640625 L 207.25 126.640625 L 177.816406 203.785156 L 225.125 179.664062 L 199.617188 277.019531 L 222.507812 264.851562 L 188.71875 315.050781 L 168.441406 255.507812 L 189.371094 274.195312 L 196.566406 207.480469 L 150.125 231.167969 Z M 174.109375 126.640625 " fill-opacity="1" fill-rule="nonzero"/></g></svg>