<?xml version="1.0" encoding="UTF-8" standalone="no"?>
<!-- Created with Inkscape (http://www.inkscape.org/) -->

<svg
   width="53.710415mm"
   height="53.710415mm"
   viewBox="0 0 53.710415 53.710415"
   version="1.1"
   id="svg1263"
   inkscape:version="1.2.1 (9c6d41e410, 2022-07-14)"
   sodipodi:docname="ISO_7000_-_Ref-No_1472.svg"
   xmlns:inkscape="http://www.inkscape.org/namespaces/inkscape"
   xmlns:sodipodi="http://sodipodi.sourceforge.net/DTD/sodipodi-0.dtd"
   xmlns="http://www.w3.org/2000/svg"
   xmlns:svg="http://www.w3.org/2000/svg">
  <sodipodi:namedview
     id="namedview1265"
     pagecolor="#505050"
     bordercolor="#eeeeee"
     borderopacity="1"
     inkscape:showpageshadow="0"
     inkscape:pageopacity="0"
     inkscape:pagecheckerboard="0"
     inkscape:deskcolor="#505050"
     inkscape:document-units="mm"
     showgrid="false"
     inkscape:zoom="0.76880612"
     inkscape:cx="-88.448828"
     inkscape:cy="217.21992"
     inkscape:window-width="1920"
     inkscape:window-height="1017"
     inkscape:window-x="-8"
     inkscape:window-y="-8"
     inkscape:window-maximized="1"
     inkscape:current-layer="layer1" />
  <defs
     id="defs1260" />
  <g
     inkscape:label="Ebene 1"
     inkscape:groupmode="layer"
     id="layer1"
     transform="translate(-89.122776,-90.843517)">
    <g
       fill="none"
       stroke="#999999"
       stroke-width="3"
       id="g166"
       inkscape:label="1"
       transform="matrix(0.26458333,0,0,0.26458333,89.519651,91.240392)">
      <path
         d="M 0,16 V 0 h 16"
         id="path158"
         inkscape:label="1" />
      <path
         d="M 200,16 V 0 h -16"
         id="path160"
         inkscape:label="1" />
      <path
         d="m 0,184 v 16 h 16"
         id="path162"
         inkscape:label="1" />
      <path
         d="m 200,184 v 16 h -16"
         id="path164"
         inkscape:label="1" />
    </g>
    <path
       id="path168"
       style="color:#000000;fill:#000000;stroke-width:0.264583;-inkscape-stroke:none"
       inkscape:label="2"
       d="m 101.35898,93.119172 -10.396266,6.05079 10.394716,6.084378 0.63872,-1.09192 -7.499284,-4.388878 h 16.487364 v -1.26555 H 94.617272 l 7.378878,-4.29483 z m 34.80924,10.903728 c -1.69453,10e-6 -3.0788,1.38513 -3.07888,3.07939 v 0.61547 l -37.49125,-0.14779 c -0.485319,-0.91856 -1.438956,-1.49337 -2.477885,-1.49345 -0.774069,-8e-5 -1.475048,0.31388 -1.982308,0.82113 -0.507269,0.50727 -0.820711,1.20824 -0.820621,1.98231 0.004,1.46835 1.14031,2.68487 2.605009,2.78846 l 8.162805,18.1622 c -0.37734,0.48779 -0.58345,1.08656 -0.58601,1.70326 -1.6e-4,1.54816 1.25478,2.80311 2.80293,2.80293 0.57878,-0.002 1.14273,-0.18333 1.61437,-0.51883 l 4.0318,5.77484 c 2.49984,3.5806 7.84997,3.5806 10.34976,0 l 6.98148,-10.00043 -1.61385,-5.1e-4 -0.89452,1.28157 h -17.74517 c -0.28827,-1.18706 -1.31195,-2.05073 -2.5306,-2.13475 l -8.159706,-18.15393 c 0.0896,-0.11644 0.170076,-0.23996 0.240295,-0.36897 l 37.513471,0.14831 v 0.6227 c 0,1.69435 1.38436,3.07938 3.07888,3.0794 l 5.47047,5.2e-4 v -1.32344 l -5.47047,5.2e-4 c -0.98447,0 -1.75596,-0.77235 -1.75596,-1.757 l -5.2e-4,-3.88452 c 0,-0.98465 0.77193,-1.75604 1.75648,-1.75596 l 5.47047,-5.2e-4 v -1.32291 z m -30.14906,28.17399 h 16.82843 l -4.63486,6.63835 c -1.99738,2.86094 -6.18303,2.86042 -8.18038,-5.2e-4 l -4.2261,-6.05337 c 0.0924,-0.1864 0.16394,-0.38229 0.21291,-0.58446 z" />
  </g>
</svg>
