<?xml version="1.0" encoding="UTF-8" standalone="no"?>
<!-- Created with Inkscape (http://www.inkscape.org/) -->

<svg
   width="53.710411mm"
   height="53.710419mm"
   viewBox="0 0 53.710411 53.710419"
   version="1.1"
   id="svg1"
   inkscape:version="1.4.2 (f4327f4, 2025-05-13)"
   sodipodi:docname="ISO_7000_-_Ref-No_1208.svg"
   xmlns:inkscape="http://www.inkscape.org/namespaces/inkscape"
   xmlns:sodipodi="http://sodipodi.sourceforge.net/DTD/sodipodi-0.dtd"
   xmlns="http://www.w3.org/2000/svg"
   xmlns:svg="http://www.w3.org/2000/svg">
  <sodipodi:namedview
     id="namedview1"
     pagecolor="#505050"
     bordercolor="#eeeeee"
     borderopacity="1"
     inkscape:showpageshadow="0"
     inkscape:pageopacity="0"
     inkscape:pagecheckerboard="0"
     inkscape:deskcolor="#505050"
     inkscape:document-units="mm"
     inkscape:zoom="0.71891835"
     inkscape:cx="230.90244"
     inkscape:cy="248.28967"
     inkscape:window-width="1920"
     inkscape:window-height="1009"
     inkscape:window-x="1912"
     inkscape:window-y="-8"
     inkscape:window-maximized="1"
     inkscape:current-layer="layer1" />
  <defs
     id="defs1" />
  <g
     inkscape:label="Ebene 1"
     inkscape:groupmode="layer"
     id="layer1"
     transform="translate(-43.920833,-82.814582)">
    <path
       id="path1"
       style="baseline-shift:baseline;display:inline;overflow:visible;vector-effect:none;fill:#999999;stroke:none;stroke-width:0.264583;enable-background:accumulate;stop-color:#000000"
       d="m 43.920833,82.814582 v 4.630189 h 0.79375 v -3.836459 h 3.83646 v -0.79373 z m 49.0802,0 v 0.79373 h 3.83647 v 3.836459 h 0.79374 v -4.630189 z m -49.0802,49.080208 v 4.63021 h 4.6302 v -0.79375 h -3.83645 v -3.83646 z m 52.91667,0 v 3.83646 h -3.83647 v 0.79375 h 4.63021 v -4.63021 z"
       inkscape:label="1" />
    <g
       id="g8-1-4"
       transform="translate(-48.959287,-9.2179353)">
      <path
         style="baseline-shift:baseline;display:inline;overflow:visible;vector-effect:none;paint-order:stroke fill markers;enable-background:accumulate;stop-color:#000000"
         d="m 34.127403,50.184955 c -1.5196,0 -2.78125,1.261651 -2.78125,2.781251 0,1.5196 1.26165,2.7793 2.78125,2.7793 1.51961,0 2.7793,-1.2597 2.7793,-2.7793 0,-1.5196 -1.25969,-2.781251 -2.7793,-2.781251 z"
         id="path4-8-7"
         sodipodi:nodetypes="sssss"
         transform="translate(68.384885,67.010033)" />
      <path
         id="path1-7-6-2"
         style="fill:none;stroke:#000000;stroke-width:2.66499;paint-order:stroke fill markers"
         d="m 112.99982,102.47023 h 25.8284 z m -2.55437,1.80558 -6.89621,13.72732 z m -7.78298,18.06918 5.1e-4,15.28899 z" />
      <circle
         style="fill:none;stroke:#000000;stroke-width:1.265;paint-order:stroke fill markers"
         id="path5-5-7"
         cx="111.33516"
         cy="102.45018"
         r="2.0656259" />
      <path
         style="fill:none;stroke:#000000;stroke-width:1.265;paint-order:stroke fill markers"
         d="m 99.27151,137.3909 h 6.78241"
         id="path8-1-9" />
      <path
         d="m 130.73111,112.04744 6.41262,-6.62517 2.4455,8.90295 m -10.26888,6.66174 c 3.80185,-3.50892 6.07129,-7.99114 7.73486,-15.0198"
         style="fill:none;stroke:#000000;stroke-width:1.265;paint-order:stroke fill markers"
         id="path1-79-3"
         sodipodi:nodetypes="ccccc" />
    </g>
  </g>
</svg>
