<?xml version="1.0" encoding="UTF-8" standalone="no"?>
<!-- Created with Inkscape (http://www.inkscape.org/) -->

<svg
   width="53.710415mm"
   height="53.710415mm"
   viewBox="0 0 53.710415 53.710415"
   version="1.1"
   id="svg2632"
   inkscape:version="1.2.1 (9c6d41e410, 2022-07-14)"
   sodipodi:docname="ISO_7000_-_Ref-No_0255.svg"
   xmlns:inkscape="http://www.inkscape.org/namespaces/inkscape"
   xmlns:sodipodi="http://sodipodi.sourceforge.net/DTD/sodipodi-0.dtd"
   xmlns="http://www.w3.org/2000/svg"
   xmlns:svg="http://www.w3.org/2000/svg">
  <sodipodi:namedview
     id="namedview2634"
     pagecolor="#505050"
     bordercolor="#eeeeee"
     borderopacity="1"
     inkscape:showpageshadow="0"
     inkscape:pageopacity="0"
     inkscape:pagecheckerboard="0"
     inkscape:deskcolor="#505050"
     inkscape:document-units="mm"
     showgrid="false"
     inkscape:zoom="0.74564394"
     inkscape:cx="74.432309"
     inkscape:cy="-296.38811"
     inkscape:window-width="1920"
     inkscape:window-height="1017"
     inkscape:window-x="-8"
     inkscape:window-y="-8"
     inkscape:window-maximized="1"
     inkscape:current-layer="layer1" />
  <defs
     id="defs2629" />
  <g
     inkscape:label="Ebene 1"
     inkscape:groupmode="layer"
     id="layer1"
     transform="translate(-68.241566,-227.20931)">
    <g
       fill="none"
       id="g50898"
       transform="matrix(0.26458333,0,0,0.26458333,68.638441,227.60618)"
       inkscape:label="2"
       style="display:inline">
      <g
         stroke="#999999"
         stroke-width="3"
         id="g50892"
         inkscape:label="2">
        <path
           d="M 0,16 V 0 h 16"
           id="path50884"
           inkscape:label="2" />
        <path
           d="M 200,16 V 0 h -16"
           id="path50886"
           inkscape:label="2" />
        <path
           d="m 0,184 v 16 h 16"
           id="path50888"
           inkscape:label="2" />
        <path
           d="m 200,184 v 16 h -16"
           id="path50890"
           inkscape:label="2" />
      </g>
    </g>
    <path
       id="path2498"
       style="color:#000000;fill:#000000"
       d="m 116.18334,240.06924 v 20.03754 H 78.422855 l 6.645589,-3.78737 -0.626835,-1.09761 -9.621118,5.48236 9.619051,5.55315 0.630969,-1.09606 -6.56084,-3.78892 h 37.673669 v 6.68745 h 1.26556 v -27.99054 z m -10.55904,1.90273 -0.62684,1.09761 6.64559,3.78736 H 73.882564 v 1.26556 h 37.673666 l -6.56084,3.78891 0.63097,1.09606 9.61905,-5.55315 z m -32.879651,12.03596 v 14.01258 h 1.266072 v -14.01258 z"
       inkscape:label="1" />
  </g>
</svg>
